<svg xmlns="http://www.w3.org/2000/svg" xmlns:svg="http://www.w3.org/2000/svg" xmlns:xlink="http://www.w3.org/1999/xlink" id="svg2178" width="48" height="48" version="1.1"><defs id="defs2180"><linearGradient id="linearGradient5139"><stop id="stop5141" offset="0" stop-color="#ffec23" stop-opacity="1"/><stop id="stop5143" offset="1" stop-color="#ffec23" stop-opacity="0"/></linearGradient><linearGradient id="linearGradient5123"><stop id="stop5125" offset="0" stop-color="#000" stop-opacity="1"/><stop id="stop5127" offset="1" stop-color="#000" stop-opacity="0"/></linearGradient><linearGradient id="linearGradient5115"><stop id="stop5117" offset="0" stop-color="#000" stop-opacity="1"/><stop id="stop5119" offset="1" stop-color="#000" stop-opacity="0"/></linearGradient><linearGradient id="linearGradient5121" x1="36.539" x2="-10.809" y1="26.714" y2="7.511" gradientTransform="matrix(0.9814757,0,0,1.0999999,1.0293813,18.471433)" gradientUnits="userSpaceOnUse" xlink:href="#linearGradient5115"/><linearGradient id="linearGradient5129" x1="33.714" x2="54.741" y1="43.294" y2="32.521" gradientTransform="matrix(0.8205128,0,0,0.68,-16.234432,16.445712)" gradientUnits="userSpaceOnUse" xlink:href="#linearGradient5123"/><linearGradient id="linearGradient5145" x1="23.861" x2="-10.146" y1="34.289" y2="21.277" gradientTransform="matrix(0.9986883,0,0,1.1869189,0.4257328,-7.9005125)" gradientUnits="userSpaceOnUse" xlink:href="#linearGradient5139"/><linearGradient id="linearGradient7675" x1="34.747" x2="1.743" y1="45.143" y2="32.239" gradientTransform="matrix(0.8410256,0,0,1.12,7.9311362,-29.559992)" gradientUnits="userSpaceOnUse" xlink:href="#linearGradient5123"/></defs><metadata id="metadata2183"/><g id="layer1"><path id="path2826" fill="#000" fill-opacity="1" fill-rule="evenodd" stroke="#000" stroke-linecap="butt" stroke-linejoin="miter" stroke-opacity="1" stroke-width="1" d="m 24.45924,24.824116 a 7.7378769,7.3226733 0 1 1 -15.4757538,0 7.7378769,7.3226733 0 1 1 15.4757538,0 z" transform="matrix(0.71989079,0,0,0.74009077,-3.6580008,4.3382554)"/><path id="path2826-7" fill="#000" fill-opacity="1" fill-rule="evenodd" stroke="#000" stroke-linecap="butt" stroke-linejoin="miter" stroke-opacity="1" stroke-width="1" d="m 24.45924,24.824116 a 7.7378769,7.3226733 0 1 1 -15.4757538,0 7.7378769,7.3226733 0 1 1 15.4757538,0 z" transform="matrix(0.71989079,0,0,-0.74009077,26.538592,40.93147)"/><path id="path3704" fill="#000" fill-opacity="1" fill-rule="evenodd" stroke="#000" stroke-linecap="butt" stroke-linejoin="miter" stroke-opacity="1" stroke-width="1" d="m 24.45924,24.824116 a 7.7378769,7.3226733 0 1 1 -15.4757538,0 7.7378769,7.3226733 0 1 1 15.4757538,0 z" transform="matrix(0.71989079,0,0,-0.74009077,11.515787,40.93147)"/></g></svg>