<svg xmlns="http://www.w3.org/2000/svg" xmlns:svg="http://www.w3.org/2000/svg" xmlns:xlink="http://www.w3.org/1999/xlink" id="svg9493" width="32" height="32" version="1.0"><metadata id="metadata3"/><defs id="defs9495"><linearGradient id="linearGradient6650" x1="23.403" x2="23.39" y1="44.067" y2="42.884" gradientTransform="matrix(0.494844,0,0,0.38268,9.310292,26.12426)" gradientUnits="userSpaceOnUse" xlink:href="#linearGradient6506"/><linearGradient id="linearGradient6494"><stop id="stop6496" offset="0" stop-color="red" stop-opacity="1"/><stop id="stop6498" offset="1" stop-color="#ff8ba4" stop-opacity="1"/></linearGradient><linearGradient id="linearGradient6648" x1="23.194" x2="23.201" y1="42.794" y2="43.893" gradientTransform="matrix(0.620206,0,0,0.620204,6.388612,15.9637)" gradientUnits="userSpaceOnUse" xlink:href="#linearGradient5756"/><linearGradient id="linearGradient6646" x1="23.35" x2="23.441" y1="42.768" y2="43.711" gradientTransform="matrix(0.692782,0,0,0.692782,4.696832,12.82138)" gradientUnits="userSpaceOnUse" xlink:href="#linearGradient5756"/><linearGradient id="linearGradient6644" x1="23.193" x2="23.2" y1="42.429" y2="44" gradientTransform="matrix(0.64,0,0,0.64,5.997572,15.16826)" gradientUnits="userSpaceOnUse" xlink:href="#linearGradient5742"/><linearGradient id="linearGradient6506"><stop id="stop6508" offset="0" stop-color="#fff" stop-opacity="0"/><stop id="stop6510" offset="1" stop-color="#fff" stop-opacity=".875"/></linearGradient><linearGradient id="linearGradient7498" x1="23.403" x2="23.39" y1="44.067" y2="42.884" gradientUnits="userSpaceOnUse" xlink:href="#linearGradient6506"/><linearGradient id="linearGradient7464"><stop id="stop7466" offset="0" stop-color="#00039a" stop-opacity="1"/><stop id="stop7468" offset="1" stop-color="#afa5ff" stop-opacity="1"/></linearGradient><linearGradient id="linearGradient7496" x1="23.214" x2="23.201" y1="42.755" y2="43.893" gradientUnits="userSpaceOnUse" xlink:href="#linearGradient7464"/><linearGradient id="linearGradient5756"><stop id="stop5758" offset="0" stop-color="#828282" stop-opacity="1"/><stop id="stop5760" offset="1" stop-color="#929292" stop-opacity=".353"/></linearGradient><linearGradient id="linearGradient9321" x1="22.935" x2="23.662" y1="42.7" y2="43.893" gradientUnits="userSpaceOnUse" xlink:href="#linearGradient5756"/><linearGradient id="linearGradient5742"><stop id="stop5744" offset="0" stop-color="#adadad" stop-opacity="1"/><stop id="stop5746" offset="1" stop-color="#f0f0f0" stop-opacity="1"/></linearGradient><linearGradient id="linearGradient7492" x1="23.193" x2="23.2" y1="42.429" y2="44" gradientUnits="userSpaceOnUse" xlink:href="#linearGradient5742"/><linearGradient id="linearGradient9527" x1="23.193" x2="23.2" y1="42.429" y2="44" gradientUnits="userSpaceOnUse" xlink:href="#linearGradient5742"/><linearGradient id="linearGradient9529" x1="22.935" x2="23.662" y1="42.7" y2="43.893" gradientUnits="userSpaceOnUse" xlink:href="#linearGradient5756"/><linearGradient id="linearGradient9531" x1="23.214" x2="23.201" y1="42.755" y2="43.893" gradientUnits="userSpaceOnUse" xlink:href="#linearGradient7464"/><linearGradient id="linearGradient9533" x1="23.403" x2="23.39" y1="44.067" y2="42.884" gradientUnits="userSpaceOnUse" xlink:href="#linearGradient6506"/></defs><g id="layer1" transform="translate(-10.4008,2.992344)"><g id="g9447" transform="matrix(31.25,0,0,31.25,-625.0232,-1325)"><path id="path6596" fill="url(#linearGradient6644)" fill-opacity="1" stroke="none" stroke-linecap="round" stroke-linejoin="round" stroke-miterlimit="4" stroke-opacity="1" stroke-width=".8" d="M 21.357568,42.816245 C 21.357568,43.098869 21.128192,43.328245 20.845568,43.328245 C 20.562944,43.328245 20.333568,43.098869 20.333568,42.816245 C 20.333568,42.533621 20.562944,42.304245 20.845568,42.304245 C 21.128192,42.304245 21.357568,42.533621 21.357568,42.816245 z" overflow="visible"/><path id="path6598" fill="url(#linearGradient6646)" fill-opacity="1" stroke="none" stroke-linecap="round" stroke-linejoin="round" stroke-miterlimit="4" stroke-opacity="1" stroke-width=".8" d="M 21.258764,42.816245 C 21.258764,43.044329 21.073652,43.229441 20.845568,43.229441 C 20.617482,43.229441 20.432372,43.044329 20.432372,42.816245 C 20.432372,42.588161 20.617482,42.403049 20.845568,42.403049 C 21.073652,42.403049 21.258764,42.588161 21.258764,42.816245 z" overflow="visible"/><path id="path6600" fill="url(#linearGradient6648)" fill-opacity="1" stroke="none" stroke-linecap="round" stroke-linejoin="round" stroke-miterlimit="4" stroke-opacity="1" stroke-width=".8" d="M 21.215476,42.816245 C 21.215476,43.020435 21.049758,43.186153 20.845568,43.186153 C 20.641378,43.186153 20.475658,43.020435 20.475658,42.816245 C 20.475658,42.612055 20.641378,42.446335 20.845568,42.446335 C 21.049758,42.446335 21.215476,42.612055 21.215476,42.816245 z" overflow="visible"/><path id="path6602" fill="url(#linearGradient6650)" fill-opacity="1" stroke="none" stroke-linecap="round" stroke-linejoin="round" stroke-miterlimit="4" stroke-opacity="1" stroke-width=".8" d="M 21.140232,42.692857 C 21.140232,42.818847 21.00801,42.921099 20.845092,42.921099 C 20.682174,42.921099 20.549952,42.818847 20.549952,42.692857 C 20.549952,42.566867 20.682174,42.464615 20.845092,42.464615 C 21.00801,42.464615 21.140232,42.566867 21.140232,42.692857 z" overflow="visible"/></g></g></svg>