<svg xmlns="http://www.w3.org/2000/svg" xmlns:cc="http://web.resource.org/cc/" xmlns:svg="http://www.w3.org/2000/svg" xmlns:xlink="http://www.w3.org/1999/xlink" id="svg9493" width="32" height="32" version="1.0"><metadata id="metadata3"/><defs id="defs9495"><linearGradient id="linearGradient7452" x1="23.403" x2="23.39" y1="44.067" y2="42.884" gradientUnits="userSpaceOnUse" xlink:href="#linearGradient6506"/><linearGradient id="linearGradient6688"><stop id="stop6690" offset="0" stop-color="#0f6900" stop-opacity="1"/><stop id="stop6692" offset="1" stop-color="#a3ff87" stop-opacity="1"/></linearGradient><linearGradient id="linearGradient7448" x1="23.35" x2="23.441" y1="42.768" y2="43.711" gradientUnits="userSpaceOnUse" xlink:href="#linearGradient5756"/><linearGradient id="linearGradient7446" x1="23.193" x2="23.2" y1="42.429" y2="44" gradientUnits="userSpaceOnUse" xlink:href="#linearGradient5742"/><linearGradient id="linearGradient6506"><stop id="stop6508" offset="0" stop-color="#fff" stop-opacity="0"/><stop id="stop6510" offset="1" stop-color="#fff" stop-opacity=".875"/></linearGradient><linearGradient id="linearGradient7498" x1="23.403" x2="23.39" y1="44.067" y2="42.884" gradientUnits="userSpaceOnUse" xlink:href="#linearGradient6506"/><linearGradient id="linearGradient7464"><stop id="stop7466" offset="0" stop-color="#00039a" stop-opacity="1"/><stop id="stop7468" offset="1" stop-color="#afa5ff" stop-opacity="1"/></linearGradient><linearGradient id="linearGradient7496" x1="23.214" x2="23.201" y1="42.755" y2="43.893" gradientUnits="userSpaceOnUse" xlink:href="#linearGradient7464"/><linearGradient id="linearGradient5756"><stop id="stop5758" offset="0" stop-color="#828282" stop-opacity="1"/><stop id="stop5760" offset="1" stop-color="#929292" stop-opacity=".353"/></linearGradient><linearGradient id="linearGradient9321" x1="22.935" x2="23.662" y1="42.7" y2="43.893" gradientUnits="userSpaceOnUse" xlink:href="#linearGradient5756"/><linearGradient id="linearGradient5742"><stop id="stop5744" offset="0" stop-color="#adadad" stop-opacity="1"/><stop id="stop5746" offset="1" stop-color="#f0f0f0" stop-opacity="1"/></linearGradient><linearGradient id="linearGradient7492" x1="23.193" x2="23.2" y1="42.429" y2="44" gradientUnits="userSpaceOnUse" xlink:href="#linearGradient5742"/><linearGradient id="linearGradient9527" x1="23.193" x2="23.2" y1="42.429" y2="44" gradientUnits="userSpaceOnUse" xlink:href="#linearGradient5742"/><linearGradient id="linearGradient9529" x1="22.935" x2="23.662" y1="42.7" y2="43.893" gradientUnits="userSpaceOnUse" xlink:href="#linearGradient5756"/><linearGradient id="linearGradient9531" x1="23.214" x2="23.201" y1="42.755" y2="43.893" gradientUnits="userSpaceOnUse" xlink:href="#linearGradient7464"/><linearGradient id="linearGradient9533" x1="23.403" x2="23.39" y1="44.067" y2="42.884" gradientUnits="userSpaceOnUse" xlink:href="#linearGradient6506"/></defs><g id="layer1" transform="translate(-6.774796,-11.7023)"><g id="g9477" transform="matrix(20,0,0,20,-441.2252,-884.2977)"><path id="path7424" fill="url(#linearGradient7446)" fill-opacity="1" stroke="none" stroke-linecap="round" stroke-linejoin="round" stroke-miterlimit="4" stroke-opacity="1" stroke-width=".8" d="M 24.000001,43.200001 C 24.000001,43.641601 23.641601,44.000001 23.200001,44.000001 C 22.758401,44.000001 22.400001,43.641601 22.400001,43.200001 C 22.400001,42.758401 22.758401,42.400001 23.200001,42.400001 C 23.641601,42.400001 24.000001,42.758401 24.000001,43.200001 z" overflow="visible" transform="translate(-1.1944e-6,2.399999)"/><path id="path7426" fill="url(#linearGradient7448)" fill-opacity="1" stroke="none" stroke-linecap="round" stroke-linejoin="round" stroke-miterlimit="4" stroke-opacity="1" stroke-width=".8" d="M 23.906358,43.296204 C 23.906358,43.625433 23.639158,43.892633 23.309929,43.892633 C 22.9807,43.892633 22.7135,43.625433 22.7135,43.296204 C 22.7135,42.966975 22.9807,42.699774 23.309929,42.699774 C 23.639158,42.699774 23.906358,42.966975 23.906358,43.296204 z" overflow="visible" transform="matrix(1.082474,0,0,1.082474,-2.032392,-1.267015)"/><path id="path7428" fill="#ff0" fill-opacity="1" stroke="none" stroke-linecap="round" stroke-linejoin="round" stroke-miterlimit="4" stroke-opacity="1" stroke-width=".8" d="M 23.906358,43.296204 C 23.906358,43.625433 23.639158,43.892633 23.309929,43.892633 C 22.9807,43.892633 22.7135,43.625433 22.7135,43.296204 C 22.7135,42.966975 22.9807,42.699774 23.309929,42.699774 C 23.639158,42.699774 23.906358,42.966975 23.906358,43.296204 z" overflow="visible" transform="matrix(0.969072,0,0,0.969072,0.611001,3.642861)"/><path id="path7430" fill="url(#linearGradient7452)" fill-opacity="1" stroke="none" stroke-linecap="round" stroke-linejoin="round" stroke-miterlimit="4" stroke-opacity="1" stroke-width=".8" d="M 23.906358,43.296204 C 23.906358,43.625433 23.639158,43.892633 23.309929,43.892633 C 22.9807,43.892633 22.7135,43.625433 22.7135,43.296204 C 22.7135,42.966975 22.9807,42.699774 23.309929,42.699774 C 23.639158,42.699774 23.906358,42.966975 23.906358,43.296204 z" overflow="visible" transform="matrix(0.773196,0,0,0.597938,5.176113,19.51876)"/></g></g></svg>