<svg xmlns="http://www.w3.org/2000/svg" xmlns:svg="http://www.w3.org/2000/svg" id="svg7631" width="100%" height="100%" x="0" y="0" enable-background="new 0 0 288 288" version="1.1" viewBox="0 0 288 288" xml:space="preserve"><metadata id="metadata21"/><g id="g3"><rect id="rect3795-2" width="214.466" height="233.918" x="55.072" y="17.242" fill="none" stroke="#000" stroke-dasharray="none" stroke-dashoffset="0" stroke-miterlimit="4" stroke-opacity="1" stroke-width="24.136"/><rect id="rect3795" width="214.466" height="233.918" x="55.072" y="35.959" fill="none" stroke="#cdcdcd" stroke-dasharray="none" stroke-dashoffset="0" stroke-miterlimit="4" stroke-opacity="1" stroke-width="24.136"/><g id="g5" transform="matrix(0.94453923,0.32839861,-0.32839861,0.94453923,38.757384,18.634382)"><path id="path7" fill="#231f20" d="M 95.6,53.2 80.1,11.3 11.3,123.9 135.5,160.5 116.6,109.7 c 26.7,-40.9 85,-27 85,-27 l 17,5.4 C 180.6,34.7 122.5,44.7 95.6,53.2 z"/><path id="path9" fill="#a4a5a6" d="M 95.6,63.8 80.1,21.9 11.3,134.6 135.5,171.2 116.6,120.4 c 26.7,-40.9 85,-27 85,-27 l 17,5.4 c -38,-53.4 -96.1,-43.5 -123,-35 z"/></g></g></svg>