<svg xmlns="http://www.w3.org/2000/svg" xmlns:svg="http://www.w3.org/2000/svg" xmlns:xlink="http://www.w3.org/1999/xlink" id="svg7631" x="0" y="0" enable-background="new 0 0 288 288" version="1.1" viewBox="0 0 288 288" xml:space="preserve"><g><g><path fill="#231F20" d="M95.6,53.2L80.1,11.3L11.3,123.9l124.2,36.6l-18.9-50.8c26.7-40.9,85-27,85-27l17,5.4 C180.6,34.7,122.5,44.7,95.6,53.2z"/><path fill="#A4A5A6" d="M95.6,63.8L80.1,21.9L11.3,134.6l124.2,36.6l-18.9-50.8c26.7-40.9,85-27,85-27l17,5.4 C180.6,45.4,122.5,55.3,95.6,63.8z"/></g><g><path fill="#231F20" d="M193.3,228.9l15.5,41.8l68.8-112.6l-124.2-36.6l18.9,50.8c-26.7,40.9-85,27-85,27l-17-5.4 C108.3,247.3,166.4,237.3,193.3,228.9z"/><path fill="#CDCDCD" d="M193.3,235.8l15.5,41.8L277.6,165l-124.2-36.6l18.9,50.8c-26.7,40.9-85,27-85,27l-17-5.4 C108.3,254.2,166.4,244.3,193.3,235.8z"/></g></g></svg>