<svg xmlns="http://www.w3.org/2000/svg" xmlns:svg="http://www.w3.org/2000/svg" xmlns:xlink="http://www.w3.org/1999/xlink" id="svg7631" width="100%" height="100%" x="0" y="0" enable-background="new 0 0 288 288" version="1.1" viewBox="0 0 288 288" xml:space="preserve"><metadata id="metadata17"/><defs id="defs15"><radialGradient id="radialGradient3149" cx="55" cy="125" r="14.375" fx="55" fy="125" gradientUnits="userSpaceOnUse" xlink:href="#linearGradient12512"/><linearGradient id="linearGradient12512"><stop id="stop12513" offset="0" stop-color="#fff" stop-opacity="1"/><stop id="stop12517" offset=".5" stop-color="#fff520" stop-opacity=".891"/><stop id="stop12514" offset="1" stop-color="#fff300" stop-opacity="0"/></linearGradient><radialGradient id="radialGradient3019" cx="55" cy="125" r="14.375" fx="55" fy="125" gradientUnits="userSpaceOnUse" xlink:href="#linearGradient12512"/></defs><g id="g3"><path id="path5" fill="#231F20" d="M66.8,122.8c0.9-1.9,2.8-3,4.8-3h176.4V96.2c1-18.3-13.1-22.7-14.8-23.6h-92c-7-21.9-31.4-23.6-31.4-23.6 S70,49,43.1,49c-29,0-30.9,23.5-30.9,23.5l-0.5,152.4h5.9L66.8,122.8z"/><g id="g7"><path id="path9" fill="#A4A5A6" d="M66.8,130.7c0.9-1.9,2.8-3,4.8-3h176.4v-23.5c1-18.3-13.1-22.7-14.8-23.6c-1.7-0.9-96,0-96,0 c-2-25.4-27.4-23.6-27.4-23.6s-39.9,0-66.8,0c-29,0-30.9,23.5-30.9,23.5l-0.5,152.4h5.9L66.8,130.7z"/><path id="path11" fill="#CDCDCD" d="M22.1,241.8h201.4l58.1-95.2c2.2-3.6-0.4-8.2-4.6-8.2H75.1c-2.1,0-3.9,1.2-4.8,3L22.1,241.8z"/></g></g><g id="layer4" display="inline" transform="matrix(5.3730865,0,0,5.3730865,28.354561,20.04239)"><path id="path12511" fill="url(#radialGradient3019)" fill-opacity="1" fill-rule="nonzero" stroke="none" stroke-width="1.25" d="m 69.375,125 c 0,7.93909 -6.435907,14.375 -14.375,14.375 -7.939093,0 -14.375,-6.43591 -14.375,-14.375 0,-7.93909 6.435907,-14.375 14.375,-14.375 7.939093,0 14.375,6.43591 14.375,14.375 z" color="#000" display="block" transform="matrix(0.783292,0,0,0.783292,-6.340883,-86.65168)" visibility="visible" style="marker:none"/></g></svg>