<svg xmlns="http://www.w3.org/2000/svg" xmlns:svg="http://www.w3.org/2000/svg" xmlns:xlink="http://www.w3.org/1999/xlink" id="svg7631" x="0" y="0" enable-background="new 0 0 288 288" version="1.1" viewBox="0 0 288 288" xml:space="preserve"><g><g><path fill="#231F20" d="M259,14.2H32.3c-8.6,0-15.5,6.9-15.5,15.5v154.9c0,8.6,6.9,15.5,15.5,15.5H259c8.6,0,15.5-6.9,15.5-15.5 V29.7C274.5,21.1,267.6,14.2,259,14.2z M243.8,171.4H48.3V46.8h195.5V171.4z"/><g><rect width="31.4" height="46.3" x="130.1" y="192.1" fill="#231F20"/><rect width="83.6" height="10.8" x="104.5" y="233" fill="#231F20"/><rect width="97.7" height="10.8" x="97.4" y="243.2" fill="#231F20"/><rect width="103.4" height="10.8" x="94.6" y="253.3" fill="#231F20"/></g></g><g><path fill="#CDCDCD" d="M259,24.5H32.3c-8.6,0-15.5,6.9-15.5,15.5v154.9c0,8.6,6.9,15.5,15.5,15.5H259c8.6,0,15.5-6.9,15.5-15.5 V40C274.5,31.4,267.6,24.5,259,24.5z M243.8,181.7H48.3V57.2h195.5V181.7z"/><g><rect width="31.4" height="46.3" x="130.1" y="202.4" fill="#CDCDCD"/><rect width="83.6" height="10.8" x="104.5" y="243.3" fill="#CDCDCD"/><rect width="97.7" height="10.8" x="97.4" y="253.6" fill="#B3B4B4"/><rect width="103.4" height="10.8" x="94.6" y="263.6" fill="#A4A5A6"/></g></g></g></svg>