<svg xmlns="http://www.w3.org/2000/svg" xmlns:svg="http://www.w3.org/2000/svg" xmlns:xlink="http://www.w3.org/1999/xlink" id="svg7631" width="100%" height="100%" x="0" y="0" enable-background="new 0 0 288 288" version="1.1" viewBox="0 0 288 288" xml:space="preserve"><metadata id="metadata33"/><defs id="defs31"><radialGradient id="radialGradient278" cx="55" cy="125" r="14.375" fx="55" fy="125" gradientUnits="userSpaceOnUse" xlink:href="#linearGradient12512"/><linearGradient id="linearGradient12512"><stop id="stop12513" offset="0" stop-color="#fff" stop-opacity="1"/><stop id="stop12517" offset=".5" stop-color="#fff520" stop-opacity=".891"/><stop id="stop12514" offset="1" stop-color="#fff300" stop-opacity="0"/></linearGradient><radialGradient id="radialGradient3149" cx="55" cy="125" r="14.375" fx="55" fy="125" gradientUnits="userSpaceOnUse" xlink:href="#linearGradient12512"/></defs><rect id="rect3" width="4.1" height="33" x="187.8" y="230.1" fill="#CDCDCD"/><rect id="rect5" width="4.1" height="33" x="199.7" y="230.1" fill="#CDCDCD"/><rect id="rect7" width="4.1" height="33" x="211.2" y="230.1" fill="#CDCDCD"/><rect id="rect9" width="4.1" height="33" x="222.8" y="230.1" fill="#CDCDCD"/><rect id="rect11" width="4.1" height="33" x="234.3" y="230.1" fill="#CDCDCD"/><g id="g13"><path id="path15" fill="#231F20" d="M154.6,55.5L182.4,42l-19.5,89.2l-41.8-39.7L117,73.7C100.9-24.5,9.7,63.9,9.7,63.9 C82.1-47.9,145.2,38.4,154.6,55.5z"/><g id="g17"><polygon id="polygon19" fill="#231F20" points="60.2 79.6 62.3 68.7 106.3 68.7 107.3 78.4"/><path id="path21" fill="#231F20" d="M187.3,77.4l1.1-7.9h57.7l0.6,10.4C246.7,79.9,186.8,77.5,187.3,77.4z"/></g></g><path id="path23" fill="#A4A5A6" d="M154.6,67.6l27.8-13.5l-19.5,89.2l-79.6-41.2L117,85.8C100.9-12.3,9.7,76.1,9.7,76.1 C82.1-35.7,145.2,50.5,154.6,67.6z"/><path id="path25" fill="#CDCDCD" d="M246.6,77.4l-59.2,0l-19.8,78.4L66.5,101.4l40.9-19.5c-0.4-2.5,0.5-2.4-0.5-4.6l-46.3,0.2L39.8,230.8H268 L246.6,77.4z M153.5,210.1c-48.3,0-87.5-25.2-87.5-56.2c0-1.7,0.2-3.3,0.4-4.9c3.9,28.7,41.4,51.3,87.1,51.3s83.2-22.6,87.1-51.3 c0.2,1.6,0.4,3.3,0.4,4.9C240.9,184.9,201.8,210.1,153.5,210.1z"/><path id="path27" fill="#A4A5A6" d="M258.1,221.4H49c-5.5,0-9.9,4.4-9.9,9.9v29.9c0,5.5,4.4,9.9,9.9,9.9h209.1c5.5,0,9.9-4.4,9.9-9.9v-29.9 C268,225.8,263.6,221.4,258.1,221.4z"/><g id="layer4" display="inline" transform="matrix(5.3730865,0,0,5.3730865,33.091853,7.0000142)"><path id="path12511" fill="url(#radialGradient3149)" fill-opacity="1" fill-rule="nonzero" stroke="none" stroke-width="1.25" d="m 69.375,125 c 0,7.93909 -6.435907,14.375 -14.375,14.375 -7.939093,0 -14.375,-6.43591 -14.375,-14.375 0,-7.93909 6.435907,-14.375 14.375,-14.375 7.939093,0 14.375,6.43591 14.375,14.375 z" color="#000" display="block" transform="matrix(0.783292,0,0,0.783292,-6.340883,-86.65168)" visibility="visible" style="marker:none"/></g></svg>