<svg xmlns="http://www.w3.org/2000/svg" xmlns:svg="http://www.w3.org/2000/svg" id="svg7631" width="100%" height="100%" version="1.1" viewBox="0 0 48 48" xml:space="preserve"><metadata id="metadata13"/><g id="g3"><path id="path5" fill="#231f20" d="M 43.6,43.1 H 4.2 C 2.6,43.1 1.4,41.8 1.4,40.3 V 12.2 c 0,-1.6 1.3,-2.8 2.8,-2.8 h 8.4 V 6.5 c 0,-1.6 1.3,-2.8 2.8,-2.8 h 16.9 c 1.6,0 2.8,1.3 2.8,2.8 v 2.8 h 8.5 c 1.6,0 2.8,1.3 2.8,2.8 v 28.2 c 0.1,1.6 -1.2,2.8 -2.8,2.8 z M 40.8,15 H 32.3 29.5 V 9.3 H 18.3 V 15 H 15.5 7 V 37.5 H 40.8 V 15 z m -29.5,2.8 c 0.8,0 1.4,0.6 1.4,1.4 0,0.8 -0.6,1.4 -1.4,1.4 -0.8,0 -1.4,-0.6 -1.4,-1.4 0,-0.8 0.6,-1.4 1.4,-1.4 z m 12.6,0 c 4.7,0 8.4,3.8 8.4,8.4 0,4.7 -3.8,8.5 -8.4,8.5 -4.7,0 -8.5,-3.8 -8.5,-8.5 0.1,-4.6 3.9,-8.4 8.5,-8.4 z m 0,14.1 c 3.1,0 5.6,-2.5 5.6,-5.6 0,-3.1 -2.5,-5.6 -5.6,-5.6 -3.1,0 -5.6,2.5 -5.6,5.6 0,3 2.5,5.6 5.6,5.6 z"/><path id="path7" fill="gray" fill-opacity="1" d="M 43.6,44.6 H 4.2 C 2.6,44.6 1.4,43.3 1.4,41.8 V 13.6 c 0,-1.6 1.3,-2.8 2.8,-2.8 h 8.4 V 7.9 c 0,-1.6 1.3,-2.8 2.8,-2.8 h 16.9 c 1.6,0 2.8,1.3 2.8,2.8 v 2.8 h 8.5 c 1.6,0 2.8,1.3 2.8,2.8 v 28.2 c 0.1,1.6 -1.2,2.9 -2.8,2.9 z M 40.8,16.4 H 32.3 29.5 V 10.8 H 18.3 v 5.6 H 15.5 7 V 38.9 H 40.8 V 16.4 z m -29.5,2.8 c 0.8,0 1.4,0.6 1.4,1.4 0,0.8 -0.6,1.4 -1.4,1.4 -0.8,0 -1.4,-0.6 -1.4,-1.4 -0.1,-0.8 0.6,-1.4 1.4,-1.4 z m 12.6,0 c 4.7,0 8.4,3.8 8.4,8.4 0,4.7 -3.8,8.5 -8.4,8.5 -4.7,0 -8.5,-3.8 -8.5,-8.5 0.1,-4.6 3.9,-8.4 8.5,-8.4 z m 0,14.1 c 3.1,0 5.6,-2.5 5.6,-5.6 0,-3.1 -2.5,-5.6 -5.6,-5.6 -3.1,0 -5.6,2.5 -5.6,5.6 0,3.1 2.5,5.6 5.6,5.6 z"/></g></svg>