<svg xmlns="http://www.w3.org/2000/svg" xmlns:svg="http://www.w3.org/2000/svg" id="svg7631" width="100%" height="100%" version="1.1" viewBox="0 0 288 288" xml:space="preserve"><metadata id="metadata13"/><g id="g3"><path id="path5" fill="#231f20" d="M 9.4,44.4 V 231.9 H 280.9 V 44.4 H 9.4 z m 87.9,153.9 c -24.3,0 -44,-19.7 -44,-44 0,-24.3 19.7,-44 44,-44 24.3,0 44,19.7 44,44 0,24.3 -19.7,44 -44,44 z m 64.7,-53.1 49.1,-81.5 51.7,81.5 H 162 z"/><path id="path7" fill="#666" d="M 9.4,53.7 V 241.2 H 280.9 V 53.7 H 9.4 z m 87.9,153.9 c -24.3,0 -44,-19.7 -44,-44 0,-24.3 19.7,-44 44,-44 24.3,0 44,19.7 44,44 0,24.3 -19.7,44 -44,44 z m 64.7,-53 49.1,-81.5 51.7,81.5 H 162 z"/></g></svg>