<svg xmlns="http://www.w3.org/2000/svg" xmlns:svg="http://www.w3.org/2000/svg" id="svg7631" width="100%" height="100%" version="1.1" viewBox="0 0 288 288" xml:space="preserve"><metadata id="metadata15"/><g id="g3"><path id="path5" fill="gray" fill-opacity="1" d="m 23,241.2 h 199.4 l 57.5,-94.3 c 2.2,-3.5 -0.4,-8.1 -4.5,-8.1 H 75.5 c -2,0 -3.9,1.2 -4.8,3 L 23,241.2 z"/><path id="path7" fill="#231f20" d="m 232.1,73 c -1.7,-0.9 -95,0 -95,0 -2,-25.2 -27.1,-23.4 -27.1,-23.4 0,0 -39.5,0 -66.1,0 -28.7,0 -30.6,23.3 -30.6,23.3 l -0.5,150.9 h 5.8 L 30.4,199.2 V 96.7 h 197.4 v 23 h 18.8 V 96.4 C 247.7,78.3 233.7,73.9 232.1,73 z"/><path id="path9" fill="#666" fill-opacity="1" d="m 232.1,81.6 c -1.7,-0.9 -95,0 -95,0 -2,-25.2 -27.1,-23.4 -27.1,-23.4 0,0 -39.5,0 -66.1,0 -28.7,0 -30.6,23.3 -30.6,23.3 l -0.5,150.9 h 5.8 L 30.4,207.8 V 105.2 h 197.4 v 23 h 18.8 V 104.9 C 247.7,86.8 233.7,82.5 232.1,81.6 z"/></g></svg>