<svg xmlns="http://www.w3.org/2000/svg" xmlns:svg="http://www.w3.org/2000/svg" xmlns:xlink="http://www.w3.org/1999/xlink" id="svg7631" width="100%" height="100%" version="1.1" viewBox="0 0 288 288" xml:space="preserve"><metadata id="metadata33"/><defs id="defs31"><radialGradient id="radialGradient3149" cx="55" cy="125" r="14.375" fx="55" fy="125" gradientUnits="userSpaceOnUse" xlink:href="#linearGradient12512"/><linearGradient id="linearGradient12512"><stop id="stop12513" offset="0" stop-color="#fff" stop-opacity="1"/><stop id="stop12517" offset=".5" stop-color="#fff520" stop-opacity=".891"/><stop id="stop12514" offset="1" stop-color="#fff300" stop-opacity="0"/></linearGradient><radialGradient id="radialGradient3067" cx="55" cy="125" r="14.375" fx="55" fy="125" gradientUnits="userSpaceOnUse" xlink:href="#linearGradient12512"/></defs><rect id="rect3" width="4.1" height="33" x="187.8" y="230.1" fill="#cdcdcd"/><rect id="rect5" width="4.1" height="33" x="199.7" y="230.1" fill="#cdcdcd"/><rect id="rect7" width="4.1" height="33" x="211.2" y="230.1" fill="#cdcdcd"/><rect id="rect9" width="4.1" height="33" x="222.8" y="230.1" fill="#cdcdcd"/><rect id="rect11" width="4.1" height="33" x="234.3" y="230.1" fill="#cdcdcd"/><g id="g13"><path id="path15" fill="#231f20" d="M 154.6,55.5 182.4,42 162.9,131.2 121.1,91.5 117,73.7 C 100.9,-24.5 9.7,63.9 9.7,63.9 82.1,-47.9 145.2,38.4 154.6,55.5 z"/><g id="g17"><polygon id="polygon19" fill="#231f20" points="62.3 68.7 106.3 68.7 107.3 78.4 60.2 79.6"/><path id="path21" fill="#231f20" d="m 187.3,77.4 1.1,-7.9 h 57.7 l 0.6,10.4 c 0,0 -59.9,-2.4 -59.4,-2.5 z"/></g></g><path id="path23" fill="gray" d="M 154.6,67.6 182.4,54.1 162.9,143.3 83.3,102.1 117,85.8 C 100.9,-12.3 9.7,76.1 9.7,76.1 82.1,-35.7 145.2,50.5 154.6,67.6 z"/><path id="path25" fill="#666" d="m 246.6,77.4 -59.2,0 -19.8,78.4 -101.1,-54.4 40.9,-19.5 c -0.4,-2.5 0.5,-2.4 -0.5,-4.6 L 60.6,77.5 39.8,230.8 H 268 L 246.6,77.4 z m -93.1,132.7 c -48.3,0 -87.5,-25.2 -87.5,-56.2 0,-1.7 0.2,-3.3 0.4,-4.9 3.9,28.7 41.4,51.3 87.1,51.3 45.7,0 83.2,-22.6 87.1,-51.3 0.2,1.6 0.4,3.3 0.4,4.9 -0.1,31 -39.2,56.2 -87.5,56.2 z"/><path id="path27" fill="gray" d="M 258.1,221.4 H 49 c -5.5,0 -9.9,4.4 -9.9,9.9 v 29.9 c 0,5.5 4.4,9.9 9.9,9.9 h 209.1 c 5.5,0 9.9,-4.4 9.9,-9.9 v -29.9 c 0,-5.5 -4.4,-9.9 -9.9,-9.9 z"/><g id="layer4" display="inline" transform="matrix(5.3730865,0,0,5.3730865,33.091851,7.0000129)"><path d="m 69.375,125 a 14.375,14.375 0 1 1 -28.75,0 14.375,14.375 0 1 1 28.75,0 z" style="marker:none" id="path12511" fill="url(#radialGradient3067)" fill-opacity="1" fill-rule="nonzero" stroke="none" stroke-width="1.25" color="#000" display="block" transform="matrix(0.783292,0,0,0.783292,-6.340883,-86.65168)" visibility="visible"/></g></svg>