<svg xmlns="http://www.w3.org/2000/svg" xmlns:svg="http://www.w3.org/2000/svg" id="svg7631" width="100%" height="100%" version="1.1" viewBox="0 0 48 48" xml:space="preserve"><metadata id="metadata21"/><g id="g3"><g id="g5"><path id="path7" fill="#231f20" d="m 42.7,38.5 -7.4,-9 c 1.6,-2.6 2.5,-5.6 2.5,-8.8 C 37.8,11.4 30.3,3.9 21,3.9 11.7,3.9 4.1,11.3 4.1,20.6 c 0,9.3 7.5,16.8 16.8,16.8 3.7,0 7.1,-1.2 9.9,-3.3 l 6.9,8.4 c 0.6,0.7 1.6,0.8 2.2,0.2 l 2.5,-2.1 c 0.7,-0.5 0.8,-1.5 0.3,-2.1 z M 8.8,20.6 C 8.8,13.9 14.2,8.5 20.9,8.5 27.6,8.5 33,13.9 33,20.6 33,27.3 27.6,32.7 20.9,32.7 14.2,32.7 8.8,27.3 8.8,20.6 z"/><rect id="rect9" width="13.4" height="4.3" x="14.5" y="19" fill="#231f20"/></g><g id="g11" fill="#999"><path id="path13" fill="gray" fill-opacity="1" d="m 42.7,40 -7.4,-9 c 1.6,-2.6 2.5,-5.6 2.5,-8.8 C 37.8,12.9 30.3,5.4 21,5.4 11.7,5.4 4.1,12.8 4.1,22.1 c 0,9.3 7.5,16.8 16.8,16.8 3.7,0 7.1,-1.2 9.9,-3.3 l 6.9,8.4 c 0.6,0.7 1.6,0.8 2.2,0.2 l 2.5,-2.1 c 0.7,-0.4 0.8,-1.4 0.3,-2.1 z M 8.8,22.1 C 8.8,15.4 14.2,10 20.9,10 27.6,10 33,15.5 33,22.1 33,28.8 27.6,34.2 20.9,34.2 14.2,34.2 8.8,28.8 8.8,22.1 z"/><rect id="rect15" width="13.4" height="4.3" x="14.5" y="20.5" fill="gray" fill-opacity="1"/></g></g></svg>